<?xml version="1.0" encoding="UTF-8" standalone="no"?>
<!-- Filename: c1159a859fb9779193f977435a1d4ca066ba710f38d8d2186f5a359a52e92ef5.svg -->
<!-- Created with https://svgstud.io -->
<svg
  version="1.1"
  xmlns="http://www.w3.org/2000/svg"
  xmlns:xlink="http://www.w3.org/1999/xlink"
  xmlns:svg="http://www.w3.org/2000/svg"
  xmlns:rdf="http://www.w3.org/1999/02/22-rdf-syntax-ns#"
  xmlns:cc="http://creativecommons.org/ns#"
  xmlns:dc="http://purl.org/dc/elements/1.1/"
  viewBox="0 0 768 768"
  width="768"
  height="768"
  role="img"
  aria-labelledby="titleID descID"
>
  <title id="titleID">3d printing filament roll with material</title>
  <desc id="descID">AI-generated SVG illustration: 3d printing filament roll with material, created on https://svgstud.io</desc>

  <rect width="768" height="768" fill="white" />

  <metadata id="copyright">
    Created by https://svgstud.io and licensed under CC-BY-SA 4.0 license. Please attribute https://svgstud.io
  </metadata>
  <metadata id="prompt">
    3d printing filament roll with material
  </metadata>
  <metadata id="version">
    7
  </metadata>
  <metadata>
    <rdf:RDF
      xmlns:rdf="http://www.w3.org/1999/02/22-rdf-syntax-ns#"
      xmlns:cc="http://creativecommons.org/ns#"
      xmlns:dc="http://purl.org/dc/elements/1.1/"
    >
      <cc:Work rdf:about="">
        <cc:license rdf:resource="http://creativecommons.org/licenses/by-sa/4.0/" />
        <dc:creator>
          <cc:Agent>
            <dc:title>https://svgstud.io</dc:title>
          </cc:Agent>
        </dc:creator>
      </cc:Work>
      <cc:License rdf:about="http://creativecommons.org/licenses/by-sa/4.0/">
        <cc:permits rdf:resource="http://creativecommons.org/ns#Reproduction" />
        <cc:permits rdf:resource="http://creativecommons.org/ns#Distribution" />
        <cc:requires rdf:resource="http://creativecommons.org/ns#Notice" />
        <cc:requires rdf:resource="http://creativecommons.org/ns#Attribution" />
        <cc:permits rdf:resource="http://creativecommons.org/ns#DerivativeWorks" />
        <cc:requires rdf:resource="http://creativecommons.org/ns#ShareAlike" />
      </cc:License>
    </rdf:RDF>
  </metadata>
  <metadata id="uid">c1159a859fb9779193f977435a1d4ca066ba710f38d8d2186f5a359a52e92ef5</metadata>

  <path stroke="none" fill="black" fill-rule="evenodd" d="M420.06,669.86C411.50,669.79 403.38,669.56 402.00,669.36C400.62,669.16 396.12,668.50 392.00,667.90C387.88,667.29 379.55,665.68 373.50,664.30C367.45,662.93 342.93,657.82 319.00,652.95C295.07,648.07 268.07,642.53 259.00,640.63C249.93,638.74 240.25,636.64 237.50,635.98C234.75,635.32 227.01,632.17 220.30,628.97C213.59,625.78 204.86,621.07 200.90,618.51C196.94,615.94 189.16,610.43 183.60,606.26C178.05,602.08 167.64,592.78 160.48,585.58C153.32,578.39 144.06,568.23 139.91,563.00C135.75,557.77 130.53,550.80 128.31,547.50C126.09,544.20 121.51,536.87 118.13,531.22C114.75,525.56 110.15,517.29 107.91,512.82C105.67,508.36 101.22,498.14 98.02,490.10C94.83,482.07 91.28,472.35 90.15,468.50C89.02,464.65 86.92,456.55 85.49,450.50C84.06,444.45 82.25,436.12 81.47,432.00C80.68,427.88 79.33,419.55 78.47,413.50C77.60,407.45 76.54,396.88 76.11,390.00C75.67,383.12 75.68,370.21 76.12,361.30C76.55,352.40 77.81,339.56 78.91,332.79C80.02,326.01 82.48,313.72 84.38,305.48C86.28,297.24 89.62,285.32 91.80,279.00C93.97,272.68 97.20,263.91 98.95,259.53C100.71,255.15 105.25,245.47 109.03,238.03C112.81,230.59 118.47,220.45 121.61,215.50C124.75,210.55 130.32,202.45 133.99,197.50C137.66,192.55 144.84,183.86 149.95,178.19C155.05,172.53 163.53,164.05 168.79,159.37C174.06,154.68 183.48,147.32 189.73,143.01C195.98,138.70 206.59,132.47 213.30,129.17C220.01,125.87 229.05,121.97 233.38,120.51C237.71,119.05 244.61,117.21 248.72,116.43C252.82,115.64 258.50,115.03 261.34,115.06C266.29,115.11 265.82,115.35 250.00,120.83C240.93,123.98 230.42,128.00 226.67,129.76C222.91,131.53 214.87,135.96 208.80,139.62C202.73,143.28 194.21,148.95 189.86,152.23C185.50,155.51 176.93,162.99 170.81,168.85C164.69,174.71 156.08,183.78 151.68,189.00C147.27,194.22 139.19,205.24 133.72,213.49C128.25,221.73 120.86,234.30 117.29,241.42C113.72,248.54 108.68,259.79 106.07,266.43C103.47,273.07 99.71,283.68 97.72,290.00C95.74,296.32 92.94,306.45 91.52,312.50C90.09,318.55 88.27,327.58 87.47,332.56C86.66,337.54 85.57,347.22 85.03,354.06C84.46,361.28 84.41,369.44 84.89,373.50C85.36,377.35 85.80,379.07 85.87,377.33C85.94,375.59 86.26,373.48 86.58,372.64C87.02,371.51 87.72,371.35 89.33,372.02C90.53,372.51 97.12,373.37 104.00,373.93C110.88,374.50 126.85,375.87 139.50,376.98C152.15,378.09 166.19,379.29 170.70,379.65C178.83,380.28 178.91,380.32 179.57,383.31C180.16,385.99 180.35,386.13 181.25,384.51C181.82,383.51 183.08,375.67 184.06,367.09C185.03,358.52 186.77,345.74 187.92,338.70C189.07,331.66 192.02,317.70 194.47,307.67C196.92,297.65 201.01,283.38 203.54,275.97C206.07,268.56 210.40,257.13 213.15,250.57C215.90,244.01 219.98,235.01 222.20,230.57C224.43,226.13 229.30,217.32 233.02,211.00C236.75,204.68 243.52,194.32 248.07,188.00C252.62,181.68 260.17,172.08 264.84,166.67C269.52,161.27 277.98,152.66 283.64,147.54C289.31,142.41 297.22,135.77 301.22,132.77C305.22,129.77 312.35,125.01 317.06,122.19C321.76,119.37 327.39,116.31 329.56,115.39C331.73,114.47 335.75,113.12 338.50,112.37C341.25,111.63 344.18,111.02 345.00,111.02C345.82,111.02 344.64,112.09 342.36,113.39C340.08,114.70 332.88,119.39 326.36,123.82C319.84,128.26 310.81,134.85 306.30,138.47C301.80,142.09 294.41,148.53 289.88,152.78C285.36,157.02 277.50,165.37 272.42,171.32C267.34,177.27 259.63,187.39 255.27,193.82C250.92,200.24 244.55,210.35 241.12,216.28C237.69,222.20 232.62,231.88 229.86,237.78C227.11,243.67 223.36,252.10 221.54,256.50C219.72,260.90 215.71,271.93 212.63,281.00C209.55,290.07 205.94,302.45 204.61,308.50C203.28,314.55 201.27,324.90 200.16,331.50C199.04,338.10 197.59,348.86 196.93,355.42C196.17,363.03 195.94,375.66 196.30,390.42C196.67,405.90 197.54,418.09 198.92,427.43C200.06,435.10 202.13,446.12 203.53,451.93C204.93,457.75 207.45,466.96 209.13,472.42C210.81,477.88 213.88,486.20 215.94,490.92C218.00,495.64 222.43,503.77 225.78,509.00C229.13,514.23 232.60,519.40 233.49,520.50C235.08,522.46 235.10,522.45 234.65,520.00C234.40,518.62 230.58,503.88 226.16,487.23C221.55,469.82 217.05,450.27 215.60,441.23C214.21,432.58 212.61,420.10 212.04,413.50C211.48,406.90 211.02,394.17 211.01,385.22C211.00,376.27 211.69,362.39 212.53,354.38C213.37,346.37 215.19,333.67 216.57,326.16C217.95,318.65 221.29,304.82 224.00,295.44C226.71,286.06 230.32,274.42 232.03,269.57C233.74,264.72 237.18,255.99 239.67,250.16C242.16,244.34 245.78,236.40 247.72,232.53C249.67,228.67 254.18,220.32 257.75,214.00C261.33,207.68 267.63,197.57 271.75,191.54C275.88,185.50 282.96,176.28 287.47,171.04C291.99,165.79 300.37,157.05 306.09,151.60C311.82,146.16 320.93,138.35 326.34,134.24C331.75,130.14 339.67,124.63 343.92,121.99C348.18,119.35 356.32,114.85 362.02,111.99C367.71,109.13 376.90,105.31 382.44,103.50C387.97,101.69 397.20,99.42 402.94,98.46C411.38,97.05 416.93,96.83 431.94,97.29C442.15,97.60 454.55,98.58 459.50,99.45C464.45,100.33 471.98,101.91 476.22,102.97C480.47,104.02 488.80,106.81 494.72,109.16C500.65,111.51 510.00,115.74 515.50,118.54C521.00,121.35 529.77,126.48 535.00,129.93C540.23,133.38 548.55,139.50 553.50,143.53C558.45,147.56 570.12,158.62 579.44,168.11C588.76,177.60 596.57,184.80 596.79,184.12C597.02,183.43 596.37,182.20 595.35,181.38C593.61,179.98 593.65,179.93 596.00,180.52C597.38,180.86 604.36,183.99 611.51,187.46C619.84,191.51 627.77,196.30 633.51,200.76C638.46,204.59 646.78,212.18 652.02,217.61C657.25,223.05 664.69,231.78 668.55,237.00C672.41,242.22 677.87,250.55 680.68,255.50C683.49,260.45 688.10,269.56 690.91,275.74C693.72,281.92 698.22,293.62 700.92,301.74C703.62,309.86 707.03,322.52 708.50,329.87C709.97,337.23 711.80,348.48 712.56,354.87C713.32,361.27 714.24,374.15 714.61,383.50C715.01,393.78 714.81,406.62 714.10,416.00C713.46,424.52 711.80,438.25 710.43,446.50C709.05,454.75 706.77,466.23 705.36,472.00C703.94,477.77 701.00,488.35 698.81,495.50C696.62,502.65 692.82,513.41 690.36,519.42C687.91,525.43 683.02,536.00 679.49,542.92C675.97,549.84 669.87,560.45 665.93,566.50C661.99,572.55 655.74,581.10 652.04,585.50C648.35,589.90 641.76,597.12 637.41,601.54C633.06,605.96 626.58,612.00 623.00,614.96C619.42,617.93 613.55,622.26 609.94,624.60C606.33,626.94 599.36,630.86 594.44,633.31C589.52,635.77 580.57,639.40 574.54,641.39C568.52,643.37 562.22,645.00 560.54,645.00C558.87,645.00 550.27,644.03 541.44,642.84C525.38,640.67 525.38,640.67 508.94,648.78C499.90,653.23 488.45,658.29 483.50,660.01C478.55,661.73 470.84,664.01 466.37,665.08C461.90,666.14 453.16,667.69 446.94,668.51C440.45,669.36 428.98,669.94 420.06,669.86zM429.50,660.50C440.60,660.25 449.94,659.37 460.00,657.64C467.98,656.26 478.55,653.72 483.50,651.98C488.45,650.25 497.00,646.63 502.50,643.95C508.00,641.26 516.85,636.20 522.16,632.71C527.48,629.22 534.99,623.78 538.86,620.61C542.73,617.44 551.21,609.36 557.70,602.64C564.19,595.93 573.77,584.75 579.00,577.80C584.23,570.86 591.39,560.52 594.93,554.84C598.47,549.15 604.23,539.01 607.74,532.30C611.24,525.59 616.54,514.68 619.51,508.06C622.48,501.44 627.15,489.55 629.89,481.64C632.62,473.72 636.46,461.46 638.42,454.37C640.38,447.29 642.85,436.32 643.92,430.00C644.98,423.68 646.40,412.09 647.06,404.27C647.82,395.29 648.06,380.88 647.71,365.27C647.32,347.95 646.55,336.44 645.12,327.00C644.00,319.57 642.64,311.17 642.08,308.32C641.53,305.47 640.13,299.40 638.98,294.82C637.82,290.24 635.76,282.90 634.40,278.50C633.04,274.10 630.07,265.55 627.82,259.50C625.56,253.45 620.41,241.79 616.36,233.59C612.32,225.39 605.67,213.69 601.58,207.59C597.50,201.49 591.12,192.68 587.41,188.00C583.71,183.32 574.78,173.65 567.58,166.50C560.38,159.35 549.67,150.00 543.78,145.71C537.90,141.43 530.02,136.06 526.29,133.79C522.56,131.52 514.10,127.05 507.50,123.87C500.90,120.68 491.35,116.72 486.27,115.07C481.19,113.42 473.09,111.27 468.27,110.30C461.52,108.93 454.65,108.52 438.50,108.52C420.26,108.51 416.05,108.82 406.50,110.86C400.45,112.14 389.65,115.12 382.50,117.46C375.35,119.81 366.12,123.41 362.00,125.47C357.87,127.53 351.12,131.72 347.00,134.78C342.88,137.85 339.19,140.82 338.80,141.40C338.42,141.97 338.28,142.62 338.50,142.83C338.72,143.05 345.58,139.39 353.76,134.70C361.94,130.02 370.40,125.43 372.56,124.51C374.73,123.59 381.45,121.96 387.50,120.89C393.55,119.83 403.11,118.67 408.75,118.32C414.39,117.98 419.00,117.95 419.00,118.27C419.00,118.58 415.29,120.05 410.75,121.54C406.21,123.03 397.55,126.27 391.50,128.73C385.45,131.20 374.83,136.09 367.91,139.60C360.98,143.11 352.24,148.31 348.49,151.15C344.74,153.99 338.07,159.95 333.65,164.41C329.24,168.86 323.01,176.03 319.81,180.34C316.62,184.65 314.00,188.81 314.00,189.59C314.00,190.36 314.16,191.00 314.37,191.00C314.57,191.00 318.50,187.60 323.12,183.45C327.73,179.30 332.39,175.40 333.48,174.79C335.40,173.72 335.40,173.75 333.69,176.09C332.72,177.42 330.71,180.43 329.21,182.80C327.72,185.16 324.18,190.79 321.34,195.30C318.50,199.81 311.31,211.15 305.36,220.50C299.41,229.85 292.63,241.32 290.29,246.00C287.95,250.68 286.03,254.86 286.02,255.31C286.01,255.75 286.44,255.85 286.97,255.52C287.50,255.19 291.46,250.33 295.77,244.71C300.07,239.09 307.56,229.32 312.41,223.00C317.26,216.68 324.66,207.98 328.86,203.68C333.06,199.38 340.55,192.59 345.50,188.59C350.45,184.59 359.90,177.99 366.50,173.92C373.10,169.86 382.21,165.04 386.75,163.21C391.28,161.39 398.03,159.28 401.75,158.54C405.46,157.79 411.65,156.91 415.50,156.58C422.50,155.98 422.50,155.98 411.05,159.55C404.75,161.52 395.72,164.62 390.98,166.45C386.24,168.28 379.92,171.02 376.93,172.53C373.94,174.03 369.48,176.64 367.00,178.32C364.52,180.00 358.68,184.60 354.00,188.54C349.32,192.49 342.51,198.89 338.86,202.77C335.20,206.64 327.19,215.82 321.05,223.16C314.91,230.50 307.18,240.55 303.88,245.50C300.57,250.45 294.94,260.47 291.36,267.76C287.50,275.64 282.28,288.82 278.50,300.26C275.01,310.84 271.23,324.45 270.10,330.50C268.97,336.55 267.59,345.55 267.03,350.50C266.47,355.45 266.04,366.25 266.06,374.50C266.09,382.75 266.69,396.48 267.40,405.00C268.11,413.52 268.37,421.13 267.97,421.90C267.50,422.81 266.67,421.52 265.55,418.16C264.61,415.33 263.36,412.72 262.76,412.35C262.00,411.88 261.87,414.02 262.32,419.59C262.68,423.94 263.22,429.98 263.53,433.00C264.09,438.50 264.09,438.50 261.53,433.75C260.12,431.14 258.55,429.00 258.04,429.00C257.53,429.00 256.87,429.41 256.56,429.90C256.25,430.40 256.88,435.96 257.96,442.27C259.04,448.57 261.51,460.84 263.46,469.53C265.41,478.22 266.88,485.46 266.73,485.60C266.58,485.75 264.41,482.42 261.90,478.19C259.40,473.96 255.86,467.35 254.05,463.50C252.24,459.65 250.56,457.05 250.31,457.71C250.06,458.38 251.02,464.23 252.44,470.71C253.86,477.20 256.53,487.23 258.38,493.00C260.23,498.77 262.10,504.36 262.54,505.41C263.08,506.71 262.99,507.11 262.24,506.65C261.64,506.28 258.15,501.20 254.49,495.37C250.82,489.53 244.93,478.98 241.39,471.92C237.84,464.86 234.43,458.77 233.81,458.38C232.99,457.87 232.85,459.88 233.31,465.82C233.65,470.30 234.65,476.78 235.52,480.23C236.40,483.68 238.71,491.68 240.66,498.00C242.60,504.32 246.37,514.95 249.02,521.62C251.68,528.29 256.32,538.64 259.34,544.62C262.36,550.60 267.01,559.10 269.68,563.50C272.35,567.90 278.55,576.90 283.46,583.50C288.41,590.15 298.26,601.36 305.55,608.65C312.79,615.89 323.59,625.43 329.54,629.85C335.50,634.27 345.15,640.37 351.00,643.41C356.84,646.44 366.32,650.49 372.06,652.40C377.80,654.31 386.26,656.63 390.85,657.55C395.45,658.47 402.42,659.59 406.35,660.05C410.28,660.50 420.70,660.70 429.50,660.50zM450.50,523.47C445.00,523.70 437.57,523.44 434.00,522.89C430.43,522.35 423.49,520.56 418.60,518.92C413.70,517.28 405.72,513.88 400.87,511.38C396.01,508.87 388.63,504.13 384.46,500.84C380.29,497.55 374.14,492.08 370.80,488.68C367.46,485.28 362.39,479.35 359.53,475.50C356.68,471.65 352.49,465.35 350.22,461.50C347.95,457.65 344.30,450.45 342.11,445.50C339.92,440.55 336.74,431.71 335.06,425.86C333.37,420.01 331.32,410.79 330.50,405.36C329.65,399.76 329.01,388.52 329.01,379.35C329.00,367.87 329.56,359.89 330.95,351.77C332.03,345.48 334.72,334.75 336.94,327.92C339.16,321.09 344.35,308.75 348.47,300.50C353.14,291.17 358.80,281.73 363.45,275.52C367.56,270.04 374.07,262.33 377.91,258.39C381.74,254.46 388.40,248.59 392.69,245.36C396.99,242.12 404.10,237.61 408.50,235.33C412.90,233.05 419.88,230.13 424.00,228.84C430.61,226.78 433.46,226.50 448.00,226.52C462.16,226.54 465.63,226.86 472.50,228.83C476.90,230.09 483.65,232.64 487.50,234.51C491.35,236.38 498.39,240.85 503.15,244.44C507.90,248.04 514.79,254.22 518.46,258.18C522.12,262.14 527.56,269.04 530.55,273.52C533.53,278.01 538.20,286.36 540.93,292.09C543.67,297.81 547.47,307.23 549.38,313.00C551.30,318.77 553.99,328.90 555.36,335.50C556.74,342.10 558.40,353.12 559.06,360.00C559.79,367.57 560.01,377.90 559.62,386.18C559.27,393.71 558.07,405.12 556.95,411.54C555.84,417.96 553.55,427.55 551.87,432.86C550.20,438.16 547.21,446.32 545.23,451.00C543.25,455.68 539.47,463.18 536.82,467.68C534.17,472.18 528.91,479.62 525.13,484.21C521.34,488.80 515.16,495.20 511.37,498.43C507.59,501.67 501.35,506.34 497.50,508.81C493.65,511.29 487.50,514.55 483.84,516.06C480.18,517.57 473.43,519.76 468.84,520.93C464.25,522.09 456.00,523.23 450.50,523.47zM452.00,515.49C460.50,515.20 465.79,514.44 472.30,512.54C477.13,511.13 483.88,508.58 487.30,506.86C490.71,505.15 496.70,501.54 500.60,498.85C504.51,496.15 510.86,490.70 514.71,486.73C518.57,482.75 524.79,474.81 528.55,469.07C532.31,463.34 537.53,453.82 540.17,447.92C542.80,442.03 546.04,433.44 547.36,428.85C548.69,424.26 550.50,416.26 551.39,411.07C552.27,405.89 553.00,399.58 553.00,397.05C553.00,392.45 553.00,392.45 531.26,392.14C519.31,391.97 509.27,391.66 508.95,391.47C508.63,391.27 503.25,391.03 496.98,390.93C485.78,390.75 485.57,390.79 484.86,393.13C484.47,394.43 482.28,401.80 480.01,409.50C477.74,417.20 474.04,427.69 471.80,432.82C469.56,437.94 465.31,445.98 462.37,450.67C459.42,455.36 453.98,463.09 450.27,467.85C446.56,472.61 438.56,481.45 432.49,487.50C426.42,493.55 418.65,500.51 415.23,502.98C411.80,505.44 409.00,507.78 409.00,508.19C409.00,508.59 411.81,509.78 415.25,510.84C418.69,511.89 424.65,513.26 428.50,513.88C432.35,514.50 436.62,515.20 438.00,515.44C439.38,515.68 445.68,515.70 452.00,515.49zM411.91,416.92C415.95,416.98 418.38,416.38 421.50,414.55C423.79,413.21 427.29,410.14 429.26,407.73C431.24,405.31 433.82,401.48 435.01,399.21C436.19,396.94 437.79,392.70 438.57,389.79C439.34,386.88 439.98,380.42 439.99,375.43C440.00,369.98 439.36,364.20 438.39,360.93C437.50,357.94 435.93,353.83 434.88,351.78C433.84,349.73 431.58,346.45 429.86,344.49C428.13,342.53 424.84,339.82 422.53,338.47C420.23,337.11 416.35,335.75 413.92,335.43C410.98,335.04 408.92,335.29 407.77,336.17C406.17,337.41 406.25,337.82 409.00,342.21C410.62,344.79 412.95,349.74 414.17,353.21C416.01,358.43 416.40,361.72 416.45,372.50C416.49,382.74 416.10,386.67 414.61,391.00C413.57,394.02 411.70,398.52 410.45,401.00C409.20,403.48 406.56,407.05 404.59,408.95C402.62,410.84 401.00,412.94 401.00,413.61C401.00,414.28 402.24,415.29 403.75,415.84C405.26,416.39 408.94,416.88 411.91,416.92zM393.31,405.74C393.97,405.54 395.91,403.23 397.63,400.63C399.35,398.02 401.60,393.32 402.63,390.19C403.98,386.06 404.48,381.62 404.45,374.00C404.43,368.05 403.84,361.77 403.09,359.50C402.36,357.30 400.86,353.36 399.76,350.75C398.42,347.57 397.16,346.00 395.94,346.00C394.95,346.00 393.17,347.35 392.00,349.01C390.82,350.66 388.78,354.65 387.47,357.88C386.16,361.10 384.68,367.06 384.18,371.12C383.68,375.24 383.64,381.50 384.10,385.28C384.56,389.00 385.87,394.18 387.02,396.78C388.16,399.37 389.78,402.54 390.62,403.81C391.45,405.08 392.66,405.95 393.31,405.74zM306.76,256.98C304.84,259.47 304.84,259.47 305.54,256.48C305.92,254.84 307.72,250.80 309.53,247.50C311.34,244.20 316.13,238.06 320.16,233.86C324.20,229.66 329.75,223.62 332.50,220.43C335.25,217.25 340.71,211.91 344.64,208.57C348.57,205.23 353.29,201.63 355.14,200.57C357.00,199.50 351.39,205.75 342.56,214.57C333.79,223.33 326.26,230.39 325.81,230.25C325.36,230.11 325.00,230.61 325.00,231.35C325.00,232.08 324.04,233.55 322.87,234.60C321.70,235.64 318.03,240.55 314.71,245.50C311.39,250.45 307.82,255.62 306.76,256.98zM339.09,234.45C326.69,246.49 326.68,246.50 331.09,240.03C333.52,236.48 338.43,230.59 342.00,226.95C345.57,223.31 351.83,218.01 355.91,215.17C359.98,212.33 363.80,210.00 364.39,210.00C364.99,210.00 362.33,212.79 358.49,216.20C354.64,219.61 345.92,227.82 339.09,234.45zM362.52,166.95C361.98,166.98 363.24,165.84 365.32,164.43C367.41,163.01 371.00,161.00 373.31,159.95C375.61,158.90 378.18,158.06 379.00,158.07C379.82,158.09 376.68,160.08 372.00,162.50C367.32,164.92 363.06,166.92 362.52,166.95zM361.00,154.67C360.18,154.94 361.59,153.18 364.15,150.76C366.71,148.33 371.98,144.68 375.85,142.65C379.73,140.61 386.41,138.04 390.70,136.95C394.99,135.85 402.44,134.67 407.25,134.32C412.06,133.98 416.00,133.96 416.00,134.29C416.00,134.61 408.83,137.16 400.07,139.95C391.31,142.74 379.27,147.08 373.32,149.59C367.37,152.11 361.82,154.39 361.00,154.67z" />

</svg>
